<svg xmlns="http://www.w3.org/2000/svg" viewBox="0 0 800 600" width="100%" height="100%">
  <defs>
    <radialGradient id="bgGrad" cx="50%" cy="50%" r="75%">
      <stop offset="0%" stop-color="#ffffff"/>
      <stop offset="70%" stop-color="#f8fafc"/>
      <stop offset="100%" stop-color="#cbd5e1"/>
    </radialGradient>
    <filter id="shadow" x="-20%" y="-20%" width="140%" height="140%">
      <feDropShadow dx="0" dy="18" stdDeviation="12" flood-color="#020617" flood-opacity="0.25"/>
    </filter>
  </defs>
  <rect width="800" height="600" fill="url(#bgGrad)"/>
  <g filter="url(#shadow)" transform="translate(260, 40)">
    <!-- Main Cabinet (Grey) -->
    <rect x="0" y="0" width="280" height="520" rx="8" fill="#94a3b8" stroke="#475569" stroke-width="4"/>
    <!-- Top Dial Lock & Key -->
    <circle cx="140" cy="40" r="22" fill="#1e293b" stroke="#cbd5e1" stroke-width="3"/>
    <circle cx="140" cy="40" r="14" fill="#cbd5e1"/>
    <!-- 4 Drawers -->
    <g transform="translate(15, 80)">
      <rect x="0" y="0" width="250" height="95" rx="4" fill="#cbd5e1" stroke="#64748b" stroke-width="2"/>
      <rect x="85" y="40" width="80" height="16" rx="4" fill="#1e293b"/>
      <circle cx="40" cy="30" r="8" fill="#475569"/>
    </g>
    <g transform="translate(15, 185)">
      <rect x="0" y="0" width="250" height="95" rx="4" fill="#cbd5e1" stroke="#64748b" stroke-width="2"/>
      <rect x="85" y="40" width="80" height="16" rx="4" fill="#1e293b"/>
    </g>
    <g transform="translate(15, 290)">
      <rect x="0" y="0" width="250" height="95" rx="4" fill="#cbd5e1" stroke="#64748b" stroke-width="2"/>
      <rect x="85" y="40" width="80" height="16" rx="4" fill="#1e293b"/>
    </g>
    <g transform="translate(15, 395)">
      <rect x="0" y="0" width="250" height="95" rx="4" fill="#cbd5e1" stroke="#64748b" stroke-width="2"/>
      <rect x="85" y="40" width="80" height="16" rx="4" fill="#1e293b"/>
    </g>
  </g>
</svg>